<?xml version="1.0" standalone="no"?><!DOCTYPE svg PUBLIC "-//W3C//DTD SVG 1.1//EN" "http://www.w3.org/Graphics/SVG/1.1/DTD/svg11.dtd"><svg t="1548656754651" class="icon" style="" viewBox="0 0 1024 1024" version="1.1" xmlns="http://www.w3.org/2000/svg" p-id="4261" xmlns:xlink="http://www.w3.org/1999/xlink" width="200" height="200"><defs><style type="text/css"></style></defs><path d="M886.4768 748.71808H123.66848a27.22816 27.22816 0 1 0 0 54.4512H886.4768a27.22816 27.22816 0 0 0 0-54.4512z m-81.73568 108.90752H205.40416a27.22304 27.22304 0 0 0 0 54.4512h599.33696a27.22304 27.22304 0 1 0 0-54.4512z m80.59392-283.48928c2.2784 0.62976 4.61312 1.08544 6.94784 1.08544a27.24864 27.24864 0 0 0 22.21568-11.39712 283.15648 283.15648 0 0 0 53.65248-166.20544c-0.25088-157.84448-128.20992-285.70112-286.04928-285.824a287.83104 287.83104 0 0 0-261.95968 172.01664l-41.5232-58.09664a27.16672 27.16672 0 0 0-45.22496 1.36704l-272.44032 435.51744a27.2384 27.2384 0 0 0 46.19776 28.88192l250.84928-400.9984 248.74496 347.96544a27.1616 27.1616 0 0 0 21.13536 11.33568c8.54016 0.68608 16.51712-3.30752 21.92384-9.74336l114.1504-136.86784 142.80192 190.18752a27.22816 27.22816 0 1 0 43.57632-32.63488l-64.9984-86.58944z m-19.7632-26.3168l-78.71488-104.86272a27.34592 27.34592 0 0 0-42.71616-1.14176l-113.58208 136.2432-177.9456-248.90368a26.68544 26.68544 0 0 0 13.55776-14.46912 232.95488 232.95488 0 0 1 215.936-148.49536c127.7696 0.09728 231.35744 103.6032 231.54176 231.3728 0 48.47104-15.04256 94.9504-43.45856 134.48704a27.0336 27.0336 0 0 0-4.61824 15.7696z" p-id="4262"></path></svg>