<?xml version="1.0" standalone="no"?><!DOCTYPE svg PUBLIC "-//W3C//DTD SVG 1.1//EN" "http://www.w3.org/Graphics/SVG/1.1/DTD/svg11.dtd"><svg t="1539096120000" class="icon" style="" viewBox="0 0 1024 1024" version="1.1" xmlns="http://www.w3.org/2000/svg" p-id="1469" xmlns:xlink="http://www.w3.org/1999/xlink" width="200" height="200"><defs><style type="text/css"></style></defs><path d="M744.031 425.741v-45.281h-169.537v45.394h72.056v43.256c0 7.959-1.406 11.981-4.162 14.4s-7.003 3.684-12.6 3.797v13.472c14.569-0.478 25.2-3.6 31.978-9.506 6.722-5.85 10.125-14.85 10.125-26.944v-38.447h72.141v-0.141zM719.591 411.734h-120.628v-17.156h120.628v17.156zM671.975 346.091h-25.453v10.659h-78.216v14.119h181.912v-14.119h-78.216l-0.028-10.659zM568.306 500.356h14.428c30.825-26.859 38.841-65.166 38.841-65.166h-27.816c-3.347 27.084-14.766 49.922-25.453 65.166v0 0zM696.922 435.191c0 0 8.044 38.306 38.841 65.166h14.428c-10.659-15.244-22.078-38.081-25.481-65.166h-27.787zM776.909 500.356h14.456c30.825-26.859 38.841-65.166 38.841-65.166h-27.816c-3.403 27.084-14.794 49.922-25.481 65.166v0 0zM905.525 435.191c0 0 8.044 38.306 38.841 65.166h14.456c-10.688-15.244-22.106-38.081-25.481-65.166h-27.816zM840.894 356.75l4.95-10.744h-25.481l-5.006 10.744h-38.475v14.119h31.866l-25.65 54.956h73.8v43.256c0 8.353-1.378 11.981-4.134 14.4-2.784 2.419-7.003 3.684-12.6 3.797v13.472c14.541-0.478 25.2-3.6 31.978-9.506 6.75-5.85 10.125-14.878 10.125-26.944v-38.475h70.313v-14.119h-70.313v-30.375h-25.341v30.375h-41.4l18.844-40.838h124.453v-14.119h-117.928zM462.078 385.325c-32.203-28.238-79.509-42.525-140.512-42.525h-71.916v338.372h71.916c61.003 0 108.394-14.316 140.512-42.469 32.006-28.012 48.881-71.803 48.881-126.647-0.028-54.9-16.903-98.803-48.881-126.731M425.15 602.45c-21.488 19.631-54.225 29.644-97.313 29.644h-25.003v-239.934h25.003c43.088 0 75.853 9.984 97.313 29.531 21.094 19.181 32.203 50.4 32.203 90.422-0.028 39.909-11.109 71.1-32.203 90.337v0 0zM156.613 546.959c0 22.275-1.491 37.969-4.444 46.659-2.756 8.241-7.566 15.159-14.203 20.419-8.044 6.159-17.887 10.688-29.194 13.584-11.053 2.813-24.919 4.275-41.119 4.416h-5.653v49.022h5.4c1.238 0.084 2.222 0 2.616 0 46.969 0 83.784-9.984 106.566-29.503 23.316-20.025 35.128-50.287 35.128-90.197v-218.475h-55.069l-0.028 204.075zM746.056 543.416c-37.266 0-67.584 30.291-67.584 67.556s30.319 67.584 67.584 67.584 67.584-30.319 67.584-67.584-30.319-67.556-67.584-67.556M746.056 658.306c-26.072 0-47.306-21.263-47.306-47.334 0-26.1 21.206-47.334 47.306-47.334 26.1 0 47.306 21.234 47.306 47.334s-21.206 47.334-47.306 47.334v0 0zM525.894 628.466c-7.144 0-12.938 5.794-12.938 12.966 0 7.144 5.794 12.938 12.938 12.938s12.938-5.794 12.938-12.938c0.028-7.172-5.794-12.966-12.938-12.966v0 0zM940.906 547.381l-45.563 85.387-45.563-85.388h-21.066v127.266h19.969v-85.922l46.631 84.178 46.631-84.206v85.95h20.053v-127.294l-21.094 0.028zM662.891 646.409c-8.663 7.622-19.772 11.897-31.303 11.897-26.072 0-47.306-21.206-47.306-47.334 0-26.072 21.206-47.278 47.306-47.278 11.531 0 22.669 4.191 31.331 11.897l1.575 1.35 14.344-14.316-1.772-1.603c-12.459-11.362-28.631-17.634-45.478-17.634-37.266 0-67.556 30.319-67.556 67.556 0 37.294 30.319 67.556 67.556 67.556 16.847 0 33.019-6.272 45.506-17.606l1.688-1.603-14.287-14.316-1.603 1.434zM662.891 646.409z" p-id="1470"></path></svg>